<svg xmlns="http://www.w3.org/2000/svg" viewBox="0 0 1280 256">
  <!-- Background elements -->
  <rect x="0" y="35" width="159" height="35" rx="17.5" fill="#52969C"/>
  <rect x="0" y="109" width="80" height="35" rx="17.5" fill="#52969C"/>
  <rect x="460" y="35" width="159" height="35" rx="17.5" fill="#52969C"/>
  <rect x="1135" y="35" width="159" height="35" rx="17.5" fill="#52969C"/>
  <rect x="1001" y="221" width="159" height="35" rx="17.5" fill="#52969C"/>
  
  <!-- Circle with rings -->
  <circle cx="296" cy="128" r="97" fill="#52969C"/>
  <circle cx="296" cy="128" r="75" fill="#B35436"/>
  <circle cx="296" cy="128" r="53" fill="#2D4B54"/>
  
  <!-- Letter T -->
  <path d="M 160 35 L 250 35 L 250 80 L 220 80 L 220 221 L 190 221 L 190 80 L 160 80 Z" fill="#52969C"/>
  
  <!-- Letter O (already drawn as circle) -->
  
  <!-- Letter R -->
  <path d="M 460 35 L 505 35 Q 560 35 575 65 Q 590 95 560 120 L 595 221 L 550 221 L 520 135 L 490 135 L 490 221 L 460 221 Z M 490 65 L 490 110 L 520 110 Q 550 110 555 87.5 Q 560 65 520 65 Z" fill="#52969C"/>
  
  <!-- Letter Q -->
  <path d="M 695 35 Q 780 35 820 90 Q 860 145 820 200 Q 780 255 695 255 Q 610 255 570 200 L 610 170 L 650 210 Q 695 225 720 180 Q 745 135 720 90 Q 695 65 665 80 L 625 50 Q 610 35 695 35 Z M 720 200 L 780 256 L 810 230 L 750 174 Z" fill="#52969C"/>
  
  <!-- Letter U -->
  <path d="M 915 35 L 945 35 L 945 180 Q 945 221 985 221 Q 1025 221 1025 180 L 1025 35 L 1055 35 L 1055 180 Q 1055 256 985 256 Q 915 256 915 180 Z" fill="#52969C"/>
  
  <!-- Letter E -->
  <path d="M 1135 35 L 1270 35 L 1270 65 L 1165 65 L 1165 115 L 1250 115 L 1250 145 L 1165 145 L 1165 191 L 1270 191 L 1270 221 L 1135 221 Z" fill="#52969C"/>
  
  <!-- Letter O (second) - same as first circle -->
  
  <!-- Gear icon -->
  <path d="M 1450 60 L 1480 60 L 1485 85 Q 1500 90 1515 100 L 1535 85 L 1555 105 L 1540 125 Q 1550 140 1555 155 L 1580 160 L 1580 190 L 1555 195 Q 1550 210 1540 225 L 1555 245 L 1535 265 L 1515 250 Q 1500 260 1485 265 L 1480 290 L 1450 290 L 1445 265 Q 1430 260 1415 250 L 1395 265 L 1375 245 L 1390 225 Q 1380 210 1375 195 L 1350 190 L 1350 160 L 1375 155 Q 1380 140 1390 125 L 1375 105 L 1395 85 L 1415 100 Q 1430 90 1445 85 Z M 1465 140 Q 1445 140 1432.5 152.5 Q 1420 165 1420 185 Q 1420 205 1432.5 217.5 Q 1445 230 1465 230 Q 1485 230 1497.5 217.5 Q 1510 205 1510 185 Q 1510 165 1497.5 152.5 Q 1485 140 1465 140 Z" fill="#52969C"/>
</svg>